<svg xmlns="http://www.w3.org/2000/svg" viewBox="0 0 500 500"><g id="freepik--Mountains--inject-225"><g id="freepik--mountains--inject-225"><g id="freepik--mountains--inject-225"><g id="freepik--mountains--inject-225"><polygon points="33.45 329.58 33.45 205.3 142.44 148.67 187.27 168.8 254.76 132.53 328.89 169.01 379.35 148.76 466.55 198.95 466.55 329.58 33.45 329.58" style="fill:#ebebeb"></polygon></g><path d="M342.21,163.67c-1.07,1.43,3.74,3.13,9.59,2.26s8.87-2.87,12.76-.83c3.14,1.64,6.27,3.22,9.1,2.61,6-1.3,6.08-4.63,9.95-4.14s12.31,7.49,16.21,4.27,12.68,0,12.68,0l-33.16-19.08Z" style="fill:#fafafa"></path><path d="M209.6,156.8c-.67,2.32,6.59.32,12.31.64s.74,4.31,5.62,5.12,13.45-4,18.15-4.94,4,4,8.1,3.83c4.37-.16,6.61-5.06,12-4.58s14,5.81,17.33,5,.9-4.7,6.4-6c4.19-1,12.47,3.08,15.65,1.49l-50.39-24.79Z" style="fill:#fafafa"></path><path d="M101.49,170c-3.73,4.51,6.24,5.34,12.93,3.59s11.34-1.07,17,1.33c4.8,2,12-3.18,19.22-3,4.35.12,14.71,3.68,19.54,2.87,6.09-1,4.4-5.84,10.68-5.06s12.67,1.9,12.67,1.9l-51.07-22.94Z" style="fill:#fafafa"></path><path d="M142.44,148.67c-17.66,12.92-16.58,15.65-8.21,14,11.46-2.29,14.88-2.53,2.81,5.76-11.35,7.8-15.62,10.33-20.81,14.58-8.52,7-.37,4.19,13.52-1.24,8.18-3.2,11.13,1.42-3.38,10.49-7.32,4.58-92.92,55.6-92.92,55.6V205.3Z" style="opacity:0.05"></path><path d="M187.27,168.8,255.67,200s5.54-2.8,9.52-5.28c8.63-5.38,6.57-11.12-2.63-8.67-13.24,3.52-18.95-.94-12.56-4.65,3.51-2,7.35-3.91,12.89-7.07,6.1-3.48,3.32-8.82-3.76-7.61-7.9,1.34-12.8,2.45-24.09,4.43-5.6,1-9.81-1.75-4.86-5.64,6.73-5.3,17.43-10.08,21.35-13s-1.53-4.13-11.18-3c-3.37.39-5.23-1.11,0-5.46,6.37-5.28,14.4-11.48,14.4-11.48Z" style="opacity:0.05"></path><path d="M366.68,157.36c3.43-2.65,12.66-8.6,12.66-8.6L328.89,169l31.29,13.27s9.62-5.6,14.58-8.57-.73-3.93-7.8-1.81-10.88,1.15,0-4.46,16.79-11.54,9.66-9.76S363.24,160,366.68,157.36Z" style="opacity:0.05"></path></g></g></g><g id="freepik--Trees--inject-225"><g id="freepik--Palm--inject-225"><path d="M78.38,262.06c8.13-55.56,8.86-116.53-2.17-168.86H72.35c9.34,50.64,8,115.87-2.95,168.86Z" style="fill:#455a64"></path><path d="M77.11,64.77c1.35,8.69,5.66,20.68-.63,29.84a5.5,5.5,0,0,1-3.79.54c-4.38-3.16-7-5.58-9.82-28.66,0,0,1.62-2.52,6.82-3.29S77.11,64.77,77.11,64.77Z" style="fill:#37474f"></path><path d="M114.58,83.45A32.27,32.27,0,0,0,83.93,59.53c7.78-6.45,17.75-5.09,24.5-.08-7.59-7.37-18.08-10.62-28-6,6.38-7.55,12.87-12.72,23.29-11.81-9.08-1.66-17-1.45-24.22,4.92,6.75-12.23,15.3-14.39,27.84-8.72C93.89,29.09,80,30.5,72.57,45.5c-.3-6.64,5.2-20.55,5.2-20.55s-6,6.91-7.62,11.22c-.8-7.41-3.07-16.25-7.5-22.38a67.44,67.44,0,0,1,4.1,26.87c-2.75-6.24-7-13.51-13.6-16.07,5.86,4.07,8.17,12.29,9.93,18.77C58.17,38.48,51.23,35,44.22,35.49c-7.87.59-13.63,6.67-17.48,13.09,6.6-6.94,15-10.72,24-5.15-7.94-.58-14.46,2.63-20.62,7.29,7.12-3.43,17.08-7.23,23.8-.77-5.27.67-10.38,1.39-15.08,3.87-8,4.24-10.52,14.13-11.68,22,2.66-8.23,6.79-15.09,15-15.75C36.81,65.9,30.89,83.71,29.81,93.42c4.36-10,9.3-16.65,18-23-5.73,8-8.31,18.19-9.28,27.83A45.66,45.66,0,0,1,49.67,76c-6.85,14-6.29,30.48-3.93,45.44-.35-13.14-.82-35.14,10.36-44.59-3,10.52-2.49,22.16-1.17,32.89.51-12.13.94-26.55,7.32-37.33-2.07,10.22-1.31,20,.38,30.26-.24-11.77.21-30.51,7.19-40.4,10.79,7.35,14.78,32.92,15.87,44.42.09-11.73-2.2-23.64-5.27-34.94,6.25,9.92,14.11,32,14.11,32s-5-18.52-8.94-27.38c4.76,1.36,8.5,5.71,11.69,9.11,6.23,6.62,9.16,16.05,10.89,24.61C108,94.16,102.5,78.46,89.5,67.72,100,66.36,110.1,73.62,114.58,83.45Z" style="fill:#BA68C8"></path><path d="M114.58,83.45A32.27,32.27,0,0,0,83.93,59.53c7.78-6.45,17.75-5.09,24.5-.08-7.59-7.37-18.08-10.62-28-6,6.38-7.55,12.87-12.72,23.29-11.81-9.08-1.66-17-1.45-24.22,4.92,6.75-12.23,15.3-14.39,27.84-8.72C93.89,29.09,80,30.5,72.57,45.5c-.3-6.64,5.2-20.55,5.2-20.55s-6,6.91-7.62,11.22c-.8-7.41-3.07-16.25-7.5-22.38a67.44,67.44,0,0,1,4.1,26.87c-2.75-6.24-7-13.51-13.6-16.07,5.86,4.07,8.17,12.29,9.93,18.77C58.17,38.48,51.23,35,44.22,35.49c-7.87.59-13.63,6.67-17.48,13.09,6.6-6.94,15-10.72,24-5.15-7.94-.58-14.46,2.63-20.62,7.29,7.12-3.43,17.08-7.23,23.8-.77-5.27.67-10.38,1.39-15.08,3.87-8,4.24-10.52,14.13-11.68,22,2.66-8.23,6.79-15.09,15-15.75C36.81,65.9,30.89,83.71,29.81,93.42c4.36-10,9.3-16.65,18-23-5.73,8-8.31,18.19-9.28,27.83A45.66,45.66,0,0,1,49.67,76c-6.85,14-6.29,30.48-3.93,45.44-.35-13.14-.82-35.14,10.36-44.59-3,10.52-2.49,22.16-1.17,32.89.51-12.13.94-26.55,7.32-37.33-2.07,10.22-1.31,20,.38,30.26-.24-11.77.21-30.51,7.19-40.4,10.79,7.35,14.78,32.92,15.87,44.42.09-11.73-2.2-23.64-5.27-34.94,6.25,9.92,14.11,32,14.11,32s-5-18.52-8.94-27.38c4.76,1.36,8.5,5.71,11.69,9.11,6.23,6.62,9.16,16.05,10.89,24.61C108,94.16,102.5,78.46,89.5,67.72,100,66.36,110.1,73.62,114.58,83.45Z" style="opacity:0.2"></path><path d="M70.52,65.81c13.87,9.56,19.33,31,21.78,46.32a140.34,140.34,0,0,0-4.9-32C94.19,85.91,99,97.18,101.69,108,100.2,93.11,100.07,80.76,86,69.32c12.84,3.09,20,9.38,27.21,23C110.64,81.69,103.1,66.23,84,62.67c12.55-4.61,25.24,2.86,32.11,11.23-3.76-10.76-20.89-21-34.06-19.34,13-10.76,26.73-2.64,33.84,7.12C112.75,49.46,93.62,38,81.72,47.5c4.32-6.57,9.14-9.23,16.94-8.2-10.23-4.42-18.23,0-25,7.86,1.42-8.2,4.24-21.35,14.75-21.9-10.74-.82-15.8,9.13-18.51,17.9-1.32-8.84-6.26-18.07-14.42-22.34C60,26.14,62.78,33,64.4,39.69c-3.82-5.07-10.8-12.29-17.87-7.8,7.77.14,12.51,10,15,16a33.16,33.16,0,0,0-21.07.74c-10.56,4-15.69,14.25-15.67,25.88,2.39-12.79,11.51-21.58,24.9-19C33.13,59.19,25.53,80.33,26.78,96.33c1.75-15.49,12.34-30,22.59-31.17C37,76.3,33.77,93.94,35.41,109.49c-.88-16.88,5.86-33.91,22.17-40.2-8.35,14.3-9.51,29.5-7,45.61-1.06-11,.76-19.75,5.41-29.71.27,11.76,7.26,34.71,7.26,34.71S58.64,94,61.3,81.78a73.19,73.19,0,0,0,5.35,24C65.05,96.69,61.5,73.71,70.52,65.81Z" style="fill:#BA68C8"></path><path d="M70.52,65.81c13.87,9.56,19.33,31,21.78,46.32a140.34,140.34,0,0,0-4.9-32C94.19,85.91,99,97.18,101.69,108,100.2,93.11,100.07,80.76,86,69.32c12.84,3.09,20,9.38,27.21,23C110.64,81.69,103.1,66.23,84,62.67c12.55-4.61,25.24,2.86,32.11,11.23-3.76-10.76-20.89-21-34.06-19.34,13-10.76,26.73-2.64,33.84,7.12C112.75,49.46,93.62,38,81.72,47.5c4.32-6.57,9.14-9.23,16.94-8.2-10.23-4.42-18.23,0-25,7.86,1.42-8.2,4.24-21.35,14.75-21.9-10.74-.82-15.8,9.13-18.51,17.9-1.32-8.84-6.26-18.07-14.42-22.34C60,26.14,62.78,33,64.4,39.69c-3.82-5.07-10.8-12.29-17.87-7.8,7.77.14,12.51,10,15,16a33.16,33.16,0,0,0-21.07.74c-10.56,4-15.69,14.25-15.67,25.88,2.39-12.79,11.51-21.58,24.9-19C33.13,59.19,25.53,80.33,26.78,96.33c1.75-15.49,12.34-30,22.59-31.17C37,76.3,33.77,93.94,35.41,109.49c-.88-16.88,5.86-33.91,22.17-40.2-8.35,14.3-9.51,29.5-7,45.61-1.06-11,.76-19.75,5.41-29.71.27,11.76,7.26,34.71,7.26,34.71S58.64,94,61.3,81.78a73.19,73.19,0,0,0,5.35,24C65.05,96.69,61.5,73.71,70.52,65.81Z" style="fill:#fff;opacity:0.1"></path><path d="M71.72,63.86c7.68,10.52,9.37,27,8.56,39.31-.39-10.33-2.46-27.48-10-35.6a107,107,0,0,0-.41,30.64,106.61,106.61,0,0,1-1.77-34.79c-5.63,6.41-9.12,16-9.59,24.46.33-8.45,1.08-17.87,5.89-25.14C55.67,64.06,49.3,70,46.33,78c2.39-8.88,8.1-15.56,17.29-17.87-4.77-4.71-13.89-7.43-19.76-2.94,5.69-6.13,15.92-4.36,21.91.24C64.49,52.13,60,45,53.81,44.72c6.76-.65,10.67,6.68,13.51,11.54a36.74,36.74,0,0,1,1.83-18.82c-1.72,5.84-1.5,12.74-.26,18.62,1.14-4.6,2.86-10.55,8.16-11.89A17.44,17.44,0,0,0,71,57.39c3.94-5,8-9.33,14.41-10.87C80,48.55,75,53.82,72.6,59c6-2.48,12.11-3.67,17.83.28-5.1-2.21-13-1.74-17.32,2.06,7.61,2.12,11.78,8.78,13.69,16C84.83,71.58,78.85,63.18,71.72,63.86Z" style="fill:#BA68C8"></path></g><g id="freepik--palm--inject-225"><path d="M117.68,262.06c-5.8-39.65-5.79-83.69,2.07-121l3.42.52c-6.67,36.14-5.49,82.69,2.36,120.51Z" style="fill:#455a64"></path><path d="M119.31,121.25c-1,6.21-3.59,14.92,0,21.3a7.37,7.37,0,0,0,3.71.58c2.36-1.95,4.42-4.18,6.43-20.65,0,0-1.16-1.8-4.87-2.35S119.31,121.25,119.31,121.25Z" style="fill:#37474f"></path><path d="M110.47,123.36c-9.28,7.66-13.22,18.87-13.33,30.22,1.23-6.1,3.33-12.84,7.77-17.56,2.28-2.43,5-5.53,8.35-6.5-2.84,6.32-6.39,19.54-6.39,19.54s5.61-15.78,10.07-22.85c-2.18,8.06-3.82,16.56-3.75,24.94.77-8.21,3.62-26.46,11.32-31.71,5,7.06,5.3,20.43,5.13,28.84,1.21-7.3,1.75-14.31.27-21.6,4.55,7.69,4.86,18,5.23,26.64.94-7.66,1.32-16-.84-23.48,8,6.75,7.65,22.45,7.39,31.83,1.69-10.68,2.09-22.46-2.8-32.43a32.58,32.58,0,0,1,7.92,15.93c-.69-6.88-2.53-14.15-6.62-19.86,6.24,4.51,9.77,9.29,12.87,16.39-.76-6.93-5-19.64-8.81-23.82,5.85.48,8.8,5.37,10.69,11.24-.82-5.6-2.61-12.65-8.34-15.68-3.35-1.77-7-2.29-10.76-2.76,4.8-4.62,11.91-1.9,17,.54-4.4-3.32-9.05-5.61-14.72-5.2,6.42-4,12.43-1.27,17.15,3.68-2.75-4.58-6.86-8.92-12.48-9.34-5-.38-9.95,2.13-13.46,5.61,1.25-4.62,2.91-10.49,7.09-13.4-4.74,1.83-7.75,7-9.71,11.47a48.25,48.25,0,0,1,2.93-19.18c-3.16,4.38-4.78,10.69-5.35,16-1.12-3.08-5.44-8-5.45-8s3.93,9.92,3.72,14.66c-5.32-10.71-15.22-11.71-24.8-5.5,9-4,15.06-2.5,19.87,6.23-5.15-4.55-10.8-4.7-17.29-3.52,7.44-.65,12.07,3.05,16.63,8.43-7.1-3.26-14.59-.94-20,4.31,4.82-3.57,11.94-4.54,17.49.06a23,23,0,0,0-21.88,17.07C95.76,127.57,103,122.39,110.47,123.36Z" style="fill:#BA68C8"></path><path d="M110.47,123.36c-9.28,7.66-13.22,18.87-13.33,30.22,1.23-6.1,3.33-12.84,7.77-17.56,2.28-2.43,5-5.53,8.35-6.5-2.84,6.32-6.39,19.54-6.39,19.54s5.61-15.78,10.07-22.85c-2.18,8.06-3.82,16.56-3.75,24.94.77-8.21,3.62-26.46,11.32-31.71,5,7.06,5.3,20.43,5.13,28.84,1.21-7.3,1.75-14.31.27-21.6,4.55,7.69,4.86,18,5.23,26.64.94-7.66,1.32-16-.84-23.48,8,6.75,7.65,22.45,7.39,31.83,1.69-10.68,2.09-22.46-2.8-32.43a32.58,32.58,0,0,1,7.92,15.93c-.69-6.88-2.53-14.15-6.62-19.86,6.24,4.51,9.77,9.29,12.87,16.39-.76-6.93-5-19.64-8.81-23.82,5.85.48,8.8,5.37,10.69,11.24-.82-5.6-2.61-12.65-8.34-15.68-3.35-1.77-7-2.29-10.76-2.76,4.8-4.62,11.91-1.9,17,.54-4.4-3.32-9.05-5.61-14.72-5.2,6.42-4,12.43-1.27,17.15,3.68-2.75-4.58-6.86-8.92-12.48-9.34-5-.38-9.95,2.13-13.46,5.61,1.25-4.62,2.91-10.49,7.09-13.4-4.74,1.83-7.75,7-9.71,11.47a48.25,48.25,0,0,1,2.93-19.18c-3.16,4.38-4.78,10.69-5.35,16-1.12-3.08-5.44-8-5.45-8s3.93,9.92,3.72,14.66c-5.32-10.71-15.22-11.71-24.8-5.5,9-4,15.06-2.5,19.87,6.23-5.15-4.55-10.8-4.7-17.29-3.52,7.44-.65,12.07,3.05,16.63,8.43-7.1-3.26-14.59-.94-20,4.31,4.82-3.57,11.94-4.54,17.49.06a23,23,0,0,0-21.88,17.07C95.76,127.57,103,122.39,110.47,123.36Z" style="opacity:0.2"></path><path d="M124,122c-9.9,6.83-13.79,22.13-15.54,33.06A100.27,100.27,0,0,1,112,132.2c-4.85,4.14-8.28,12.18-10.2,19.88,1.06-10.6,1.16-19.41,11.21-27.58-9.17,2.2-14.28,6.7-19.42,16.44,1.83-7.61,7.21-18.64,20.83-21.19-8.95-3.29-18,2-22.91,8,2.68-7.67,14.91-15,24.3-13.79-9.27-7.69-19.07-1.89-24.15,5.08,2.25-8.72,15.91-16.89,24.4-10.12-3.09-4.69-6.53-6.59-12.1-5.86,7.31-3.15,13,0,17.87,5.61-1-5.85-3-15.23-10.53-15.63,7.67-.58,11.28,6.52,13.21,12.78.94-6.31,4.47-12.9,10.3-15.94a32,32,0,0,0-6.39,13.46c2.72-3.62,7.71-8.77,12.75-5.57-5.54.1-8.93,7.1-10.69,11.4a23.69,23.69,0,0,1,15,.53c7.54,2.85,11.19,10.18,11.19,18.47-1.71-9.13-8.22-15.4-17.78-13.57,11.8,2.66,17.23,17.75,16.34,29.17-1.25-11.06-8.81-21.45-16.13-22.25,8.81,7.95,11.14,20.54,10,31.64.63-12-4.18-24.2-15.82-28.69,6,10.21,6.78,21,5,32.55a38.11,38.11,0,0,0-3.86-21.21c-.19,8.4-5.18,24.78-5.18,24.78s3.27-18.49,1.37-27.21a52.3,52.3,0,0,1-3.82,17.13C127.91,144,130.44,127.63,124,122Z" style="fill:#BA68C8"></path><path d="M124,122c-9.9,6.83-13.79,22.13-15.54,33.06A100.27,100.27,0,0,1,112,132.2c-4.85,4.14-8.28,12.18-10.2,19.88,1.06-10.6,1.16-19.41,11.21-27.58-9.17,2.2-14.28,6.7-19.42,16.44,1.83-7.61,7.21-18.64,20.83-21.19-8.95-3.29-18,2-22.91,8,2.68-7.67,14.91-15,24.3-13.79-9.27-7.69-19.07-1.89-24.15,5.08,2.25-8.72,15.91-16.89,24.4-10.12-3.09-4.69-6.53-6.59-12.1-5.86,7.31-3.15,13,0,17.87,5.61-1-5.85-3-15.23-10.53-15.63,7.67-.58,11.28,6.52,13.21,12.78.94-6.31,4.47-12.9,10.3-15.94a32,32,0,0,0-6.39,13.46c2.72-3.62,7.71-8.77,12.75-5.57-5.54.1-8.93,7.1-10.69,11.4a23.69,23.69,0,0,1,15,.53c7.54,2.85,11.19,10.18,11.19,18.47-1.71-9.13-8.22-15.4-17.78-13.57,11.8,2.66,17.23,17.75,16.34,29.17-1.25-11.06-8.81-21.45-16.13-22.25,8.81,7.95,11.14,20.54,10,31.64.63-12-4.18-24.2-15.82-28.69,6,10.21,6.78,21,5,32.55a38.11,38.11,0,0,0-3.86-21.21c-.19,8.4-5.18,24.78-5.18,24.78s3.27-18.49,1.37-27.21a52.3,52.3,0,0,1-3.82,17.13C127.91,144,130.44,127.63,124,122Z" style="fill:#fff;opacity:0.1"></path><path d="M123.15,120.6c-5.48,7.51-6.69,19.24-6.11,28.06.28-7.37,1.76-19.62,7.17-25.41a76.34,76.34,0,0,1,.29,21.87,76.08,76.08,0,0,0,1.27-24.83,30.38,30.38,0,0,1,6.84,17.46c-.24-6-.77-12.76-4.2-18a16.26,16.26,0,0,1,12.86,10.89c-1.7-6.34-5.78-11.11-12.34-12.76,3.41-3.35,9.92-5.3,14.1-2.09-4.05-4.38-11.35-3.12-15.63.17.92-3.78,4.15-8.85,8.54-9.06-4.83-.47-7.62,4.76-9.65,8.23a26.11,26.11,0,0,0-1.3-13.43,28.26,28.26,0,0,1,.18,13.28c-.81-3.28-2-7.52-5.82-8.48A12.44,12.44,0,0,1,123.7,116c-2.81-3.56-5.69-6.65-10.28-7.75a17.92,17.92,0,0,1,9.1,8.87c-4.28-1.77-8.64-2.62-12.72.2,3.64-1.58,9.28-1.24,12.36,1.47-5.43,1.51-8.4,6.27-9.77,11.45C113.8,126.11,118.07,120.11,123.15,120.6Z" style="fill:#BA68C8"></path></g></g><g id="freepik--Floor--inject-225"><g id="freepik--Beach--inject-225"><ellipse id="freepik--Sand--inject-225" cx="249.37" cy="341.82" rx="240.12" ry="138.63" style="fill:#e0e0e0"></ellipse><g id="freepik--Sea--inject-225"><path d="M465.84,402.67c-25.63-8.06-58.43-11-77.35-21.86-24.71-14.23-5-27.31-13.3-44.05s-79.68-17.05-114.32-39.33c-30.94-19.92-10-38.07-35.53-53.47-24.25-14.61-75.77-12-98.39-21.72,73-25.35,164.18-26.32,238.53-2.92,38.72,12.64,72,30.07,96.08,55.47C499,314.43,500.42,362.39,465.84,402.67Z" style="fill:#BA68C8;opacity:0.30000000000000004"></path><path d="M386,226.57a227.24,227.24,0,0,1,63,36.37c43.62,36.82,53.07,83.07,28.33,124-11.2-2.58-23.66-5.4-37.38-9.64-36.9-11.39-27.89-23.95-25.51-38,2.89-17.17-11.17-28.32-54.07-35.61-39.09-6.64-64.5-11.33-77.8-27.72-10.59-13.06-2.26-27.67-27.42-45.11-21-14.56-54.78-13.43-81.38-21C244,196.07,323,201.68,386,226.57Z" style="fill:#BA68C8;opacity:0.5"></path><path d="M420.42,243.07c58.45,33.74,80.46,80.55,66.05,124.14-17.6-3.94-32.51-7.76-38.19-14.48-15.59-18.44,19.94-37-20.33-54.64C383.57,278.69,324.38,282.34,313.2,261c-13.72-26.19-4.22-45.36-51.73-58.39C319.26,204.1,376.29,217.59,420.42,243.07Z" style="fill:#BA68C8"></path><path d="M202.41,235.91c-1.77-.28-3.52-.62-5.3-.85-3.53-.54-7.08-1-10.63-1.45L165.16,231c-7.11-1-14.22-2-21.26-3.52a84.27,84.27,0,0,1-17-5.19l.6-.21a50.08,50.08,0,0,0,6.18,1.74c.87.2,1.72.44,2.6.62l2.62.52c1.75.37,3.51.67,5.27,1,7,1.17,14.13,2.12,21.22,3.06s14.21,1.88,21.29,3.09a136.73,136.73,0,0,1,21,4.91l-2.64-.52C204.16,236.26,203.3,236,202.41,235.91Z" style="fill:#fff"></path><path d="M251.61,290.14a73.49,73.49,0,0,0,14.15,10.61,104.07,104.07,0,0,0,16.11,7.46c11.11,4.13,22.63,6.91,34.16,9.41,5.78,1.2,11.59,2.23,17.38,3.28S345,323,350.66,324.39s11.34,3,16.45,5.83a22.49,22.49,0,0,1,6.76,5.37,15.29,15.29,0,0,1,3.35,8,15.85,15.85,0,0,0-.82-4.35,15.24,15.24,0,0,0-2.1-3.94,23.19,23.19,0,0,0-6.69-5.9,65.4,65.4,0,0,0-16.55-6.51c-11.45-3.06-23.14-4.78-34.62-7.22a300.12,300.12,0,0,1-34-8.92C271.34,302.94,260.63,297.79,251.61,290.14Z" style="fill:#fff"></path><path d="M460.16,399.9q3.21.9,6.39,1.93l-1.42,1.65c-1.83-.57-3.66-1.11-5.51-1.62-9-2.53-18.26-4.44-27.45-6.55a218.23,218.23,0,0,1-27.26-7.63c4.56,1.23,9.13,2.35,13.74,3.29s9.23,1.88,13.85,2.79C441.75,395.55,451,397.38,460.16,399.9Z" style="fill:#fff"></path><path d="M292.09,284.5a53.92,53.92,0,0,1-7.08-6.57,26.76,26.76,0,0,1-4.79-8.14c-1.11-3-2-6.08-3-9.19s-2.06-6.18-3.37-9.21a50.74,50.74,0,0,0-4.81-8.64,41.75,41.75,0,0,0-6.64-7.34,58.57,58.57,0,0,0-16.84-9.89c5.65,3.18,11.16,6.64,15.77,11.06A46.88,46.88,0,0,1,272,252.21c1.3,2.9,2.36,5.94,3.4,9s2,6.16,3.35,9.19a25.73,25.73,0,0,0,5.53,8.21A44.37,44.37,0,0,0,292.09,284.5Z" style="fill:#fff"></path><path d="M443.16,378.24c-3.56-1.33-7.17-2.54-10.67-4a89.11,89.11,0,0,1-10.24-4.75c-3.2-1.86-6.32-4.06-8.18-7.08a11.66,11.66,0,0,1-1.57-4.93,13.84,13.84,0,0,1,.11-2.65,19.31,19.31,0,0,1,.48-2.71c.8-3.65,1.9-7.33,2.48-11.18a25,25,0,0,0-.63-11.67,20.5,20.5,0,0,0-6.71-9.47,32.3,32.3,0,0,0-4.79-3.21c-.82-.49-1.69-.9-2.54-1.33s-1.75-.75-2.62-1.13a42.4,42.4,0,0,1,9.28,6.42,20.07,20.07,0,0,1,5.86,9.19,24.28,24.28,0,0,1,.25,10.9c-.61,3.67-1.71,7.28-2.57,11a20.78,20.78,0,0,0-.49,2.91,16.19,16.19,0,0,0-.1,3,13.22,13.22,0,0,0,1.93,5.79,17.22,17.22,0,0,0,4.11,4.35,30.1,30.1,0,0,0,4.94,3.11C428.4,374.37,435.79,376.38,443.16,378.24Z" style="fill:#fff"></path><path d="M290.75,216.65A52.88,52.88,0,0,0,279,209.56c-7.16-3.18-14.8-5.13-22.48-7.06,2.85,0,5.7.12,8.55.22a90.83,90.83,0,0,1,14.6,5.4,49.88,49.88,0,0,1,11.74,7.77,42,42,0,0,1,8.62,11A44.78,44.78,0,0,0,290.75,216.65Z" style="fill:#fff"></path><path d="M325.82,271.49a59.3,59.3,0,0,0,14.29,5.83c4.95,1.45,10,2.54,15,3.54s10.12,1.79,15.19,2.53,10.15,1.42,15.24,2.14c-4.91-1.55-9.94-2.66-15-3.71s-10.06-2-15.08-3-10-2-15-3.07A98.36,98.36,0,0,1,325.82,271.49Z" style="fill:#fff"></path><path d="M411.89,292.16c5.81,2.31,11.73,4.33,17.31,7a56.59,56.59,0,0,1,8,4.55,26.25,26.25,0,0,1,6.55,6.13,17,17,0,0,1,3.19,8.14,25,25,0,0,1-.76,8.95c-.72,3-1.73,6-2.38,9.06s-.72,6.48.67,9.33a15.39,15.39,0,0,1,.3-9.09c.86-3,2.07-5.84,3-8.89a25.18,25.18,0,0,0,1.14-9.57c-.08-.81-.27-1.62-.4-2.43s-.49-1.57-.73-2.35a17.36,17.36,0,0,0-2.33-4.35,27.6,27.6,0,0,0-7.12-6.53,51.57,51.57,0,0,0-8.43-4.39,89.5,89.5,0,0,0-8.9-3.13C417.94,293.72,414.92,292.93,411.89,292.16Z" style="fill:#fff"></path></g></g></g><g id="freepik--Shadows--inject-225"><path id="freepik--Shadow--inject-225" d="M340.56,445a3.94,3.94,0,0,1-3.25-1.83l-25.52-35.78a3.79,3.79,0,0,1-.49-4.08,3.52,3.52,0,0,1,3.22-1.87,4.82,4.82,0,0,1,1.17.15l63.68,15.14c3.07.72,3.13,2.88,3.07,3.53s-.48,2.75-3.62,3l-31.46,2-3.16,16.43a3.75,3.75,0,0,1-3.64,3.34Z" style="opacity:0.1"></path><path id="freepik--shadow--inject-225" d="M55,385.31l132.12,76.33a9.49,9.49,0,0,0,8.56,0l79.79-46.07c2.37-1.37,2.37-3.58,0-4.95L143.38,334.3a9.45,9.45,0,0,0-8.57,0L55,380.37C52.65,381.73,52.65,384,55,385.31Z" style="opacity:0.1"></path></g><g id="freepik--Arrow--inject-225"><g id="freepik--arrow--inject-225"><path d="M379.45,419.73h0V411l-65.53-15.07v8.77h0a1.41,1.41,0,0,0,.3.71l25.52,35.78c.63.88,1.3.73,1.5-.33L344.48,424A2.68,2.68,0,0,1,346.8,422l31.83-2C379.17,419.92,379.45,419.83,379.45,419.73Z" style="fill:#BA68C8"></path><path d="M379.45,419.73h0V411l-65.53-15.07v8.77h0a1.41,1.41,0,0,0,.3.71l25.52,35.78c.63.88,1.3.73,1.5-.33L344.48,424A2.68,2.68,0,0,1,346.8,422l31.83-2C379.17,419.92,379.45,419.83,379.45,419.73Z" style="opacity:0.15"></path><path d="M341.17,416.25v24.83a.88.88,0,0,0,.08-.26L344.48,424A2.44,2.44,0,0,1,345,423V410.62Z" style="opacity:0.2"></path><path d="M341.25,432.05l3.23-16.79a2.68,2.68,0,0,1,2.32-2.05l31.83-2c1.08-.07,1.1-.33.05-.58L315,395.46c-1.05-.25-1.39.26-.77,1.13l25.52,35.78C340.38,433.25,341.05,433.11,341.25,432.05Z" style="fill:#BA68C8"></path><path d="M345,414.18a2.64,2.64,0,0,1,1.78-1l31.83-2c1.08-.07,1.1-.33.05-.58L315,395.46c-.56-.14-.91,0-1,.19Z" style="fill:#fff;opacity:0.15"></path></g></g><g id="freepik--Character--inject-225"><g id="freepik--character--inject-225"><g id="freepik--Hammok--inject-225"><path d="M183.4,454.52a1.67,1.67,0,0,1-1.19-2.86l33.11-33.45a1.75,1.75,0,0,1,.77-.44l45.52-11.95a1.68,1.68,0,1,1,.85,3.25L217.38,420.9,184.6,454A1.65,1.65,0,0,1,183.4,454.52Z" style="fill:#BA68C8"></path><path d="M74.26,391.46a1.68,1.68,0,0,1-1.2-2.86l33.11-33.45a1.66,1.66,0,0,1,.77-.44l45.52-11.95a1.68,1.68,0,0,1,.85,3.25l-45.08,11.83L75.45,391A1.64,1.64,0,0,1,74.26,391.46Z" style="fill:#BA68C8"></path><g style="opacity:0.4"><path d="M183.4,454.52a1.67,1.67,0,0,1-1.19-2.86l33.11-33.45a1.75,1.75,0,0,1,.77-.44l45.52-11.95a1.68,1.68,0,1,1,.85,3.25L217.38,420.9,184.6,454A1.65,1.65,0,0,1,183.4,454.52Z"></path><path d="M74.26,391.46a1.68,1.68,0,0,1-1.2-2.86l33.11-33.45a1.66,1.66,0,0,1,.77-.44l45.52-11.95a1.68,1.68,0,0,1,.85,3.25l-45.08,11.83L75.45,391A1.64,1.64,0,0,1,74.26,391.46Z"></path></g><path d="M97.2,348.53c-4.89-2.83-10-9.9-11-15.45L55.21,176.8a1.68,1.68,0,0,0-3.3.65L82.85,333.73c1.3,6.58,6.87,14.35,12.67,17.7L226.67,427.2l1.68-2.91Z" style="fill:#BA68C8"></path><path d="M97.2,348.53c-4.89-2.83-10-9.9-11-15.45L55.21,176.8a1.68,1.68,0,0,0-3.3.65L82.85,333.73c1.3,6.58,6.87,14.35,12.67,17.7L226.67,427.2l1.68-2.91Z" style="opacity:0.25"></path><path d="M100.17,222.19a.53.53,0,0,1-.23-.06L57.81,200.64a.51.51,0,0,1-.22-.69.5.5,0,0,1,.68-.22l42.14,21.5a.5.5,0,0,1,.22.68A.51.51,0,0,1,100.17,222.19Z" style="fill:#fafafa"></path><path d="M66.13,241.81a.5.5,0,0,1-.49-.41l-8.1-41.12a.52.52,0,0,1,.4-.6.51.51,0,0,1,.6.4l8.1,41.12a.51.51,0,0,1-.41.6Z" style="fill:#fafafa"></path><path d="M52.67,249.62h-.06a.51.51,0,0,1-.45-.56l5.38-48.92a.51.51,0,0,1,.56-.45.51.51,0,0,1,.45.56l-5.37,48.92A.52.52,0,0,1,52.67,249.62Z" style="fill:#fafafa"></path><path d="M40.25,256.79l-.15,0a.5.5,0,0,1-.33-.64L57.56,200a.5.5,0,0,1,.64-.33.51.51,0,0,1,.33.64L40.74,256.43A.51.51,0,0,1,40.25,256.79Z" style="fill:#fafafa"></path><path d="M110.61,216.17a.32.32,0,0,1-.14,0L57.9,200.67a.51.51,0,0,1,.29-1l52.56,15.48a.51.51,0,0,1,.35.63A.52.52,0,0,1,110.61,216.17Z" style="fill:#fafafa"></path><path d="M88.1,229.16a.5.5,0,0,1-.36-.14l-30-28.47a.51.51,0,1,1,.7-.74l30.06,28.47a.53.53,0,0,1,0,.73A.55.55,0,0,1,88.1,229.16Z" style="fill:#fafafa"></path><path d="M77.5,235.28a.49.49,0,0,1-.44-.26L57.6,200.43a.51.51,0,0,1,.19-.69.52.52,0,0,1,.7.19l19.45,34.59a.52.52,0,0,1-.19.7A.57.57,0,0,1,77.5,235.28Z" style="fill:#fafafa"></path><path d="M58.73,195.33a2.25,2.25,0,0,0-2.27.23,7.09,7.09,0,0,0-3.21,5.56,2.27,2.27,0,0,0,.94,2.08l1.58.92a2.28,2.28,0,0,0,2.27-.23,7.08,7.08,0,0,0,3.22-5.56,2.28,2.28,0,0,0-.95-2.09Z" style="fill:#37474f"></path><path d="M58,196.47c1.78-1,3.22-.19,3.22,1.86A7.08,7.08,0,0,1,58,203.89c-1.77,1-3.21.2-3.21-1.85A7.13,7.13,0,0,1,58,196.47Z" style="fill:#455a64"></path><polygon points="115.53 217.59 115.53 220.14 113.43 218.81 115.53 217.59" style="fill:#263238"></polygon><path d="M226.72,369.32c-5.71,2.72-52.24,7.3-90-12.5C97.55,336.3,76.42,315.61,34.8,258.48v-3.83C76.42,311.78,97.55,332.47,136.7,353c37.78,19.81,84.31,15.22,90,12.5Z" style="fill:#BA68C8"></path><path d="M226.72,369.32c-5.71,2.72-52.24,7.3-90-12.5C97.55,336.3,76.42,315.61,34.8,258.48v-3.83C76.42,311.78,97.55,332.47,136.7,353c37.78,19.81,84.31,15.22,90,12.5Z" style="fill:#fff;opacity:0.6000000000000001"></path><path d="M226.72,369.32c-5.71,2.72-52.24,7.3-90-12.5C97.55,336.3,76.42,315.61,34.8,258.48v-3.83C76.42,311.78,97.55,332.47,136.7,353c37.78,19.81,84.31,15.22,90,12.5Z" style="opacity:0.1"></path><path d="M226.72,365.49c-5.71,2.72-52.24,7.31-90-12.5-39.15-20.52-60.28-41.21-101.9-98.34l74.49-43c41.63,57.13,76.71,85.93,115.86,106.45,37.79,19.8,70.35,7.11,76.06,4.39Z" style="fill:#BA68C8"></path><path d="M226.72,365.49c-5.71,2.72-52.24,7.31-90-12.5-39.15-20.52-60.28-41.21-101.9-98.34l74.49-43c41.63,57.13,76.71,85.93,115.86,106.45,37.79,19.8,70.35,7.11,76.06,4.39Z" style="fill:#fff;opacity:0.8"></path><path d="M115.53,217.59l-4.92-6.71L33.79,255.23c1.68,2.3,3.32,4.52,4.93,6.71Z" style="fill:#455a64"></path><path d="M33.79,255.23v3.85c1.68,2.3,3.32,4.53,4.93,6.71v-3.85C37.11,259.75,35.47,257.53,33.79,255.23Z" style="fill:#37474f"></path><polygon points="38.72 265.79 39.73 265.21 39.72 261.36 38.72 261.94 38.72 265.79" style="fill:#263238"></polygon><polygon points="302.5 321.74 302.5 325.57 225.1 370.26 225.1 366.43 302.5 321.74" style="fill:#37474f"></polygon><polygon points="218.27 368.71 295.67 324.03 302.5 321.74 225.1 366.43 218.27 368.71" style="fill:#455a64"></polygon><polyline points="225.1 370.26 225.1 366.43 218.27 368.71 218.27 372.54 225.1 370.26" style="fill:#263238"></polyline></g><path id="freepik--shadow--inject-225" d="M238.41,356.73a19.71,19.71,0,0,1-8,2c-3.91.18-7.17-1.49-10.91-2.29-2.13-.45-4.5-.22-6.53-.88a11.85,11.85,0,0,1-4.95-3.29c-1.23-1.47-.81-2.87-1-4.66-.2-2-2.43-3.4-3.75-4.69a26.87,26.87,0,0,0-5.06-3.34c-4.73-2.87-9.4-5.41-13.82-8.75-3.64-2.75-9.05-5.76-13.81-5.3a6.17,6.17,0,0,0,1.33,4.07c2.46,3.9,6.27,6.46,10.21,8.69,2,1.13,4,2.35,6,3.43,1.61.85,3.87,1.75,3.8,4-.09,2.85-5.71,4.09-7.87,4.59a19.6,19.6,0,0,1-6.44,0c-3.32-.35-6.46-.89-8.63-3.68-1-1.32-1.4-3.05-2.68-4.19a12.58,12.58,0,0,0-4.49-2.63,8,8,0,0,1-4.29-3.08c-1.14-1.82-1-3.57-1-5.62a5.8,5.8,0,0,0-1.53-4.55,11.87,11.87,0,0,0-2.63-1.68c-1-.56-1.93-1.32-2.93-1.93a12.47,12.47,0,0,0-3.86-1.29c-3.58-.76-4.55-.15-7.66,1.89-5.3,3.47-12.31,3.66-18.61,3-10.44-1-15.19-11.11-20-18.94-1.82-3-2.7-5.73-5.9-7.07-3.47-1.47-5.88-2-7.72-5.53-3.94-7.62-7-15.83-11-23.42-3.33-6.31-4.66-13.22,1.94-17.52,3.05-2,6.92-4.31,8.88-7.44a4.29,4.29,0,0,0,.84-2.7,10.18,10.18,0,0,0-.33-1.53c-.19-.64-.33-1.31-.47-2-.07-.35-.19-.91-.19-.91-.2,0-.39.16-.6.21a2.21,2.21,0,0,1-1-.08,2.06,2.06,0,0,1-.75-.31c-.06,0-.2-.27-.24-.29s-.32,0-.46.08a4.08,4.08,0,0,1-1.21.11,6.61,6.61,0,0,1-2-.67l17.08-9.86a18.63,18.63,0,0,1,3.39,4.71c2.69,4.94,4.87,9.42,9.1,13.34,5.46,5,11.13,9.43,14.5,16.26,9.72,19.76,31.51,30.62,49.43,41.82,11.36,7.1,21.88,16.31,31.57,25.48,5.55,5.24,11.89,8.73,18.93,11.64,2.47,1,5,2,7.48,2.89,2.24.8,4.29,1.89,6.49,2.81s5.47,1.65,5.47,4.58c0,1.88-1.27,2.79-2.72,3.66C239.41,356.21,238.91,356.48,238.41,356.73Z" style="fill:#BA68C8;opacity:0.2"></path><g id="freepik--character--inject-225"><g id="freepik--Chest--inject-225"><path d="M67.59,225a.94.94,0,0,0,.31.52c.65.56,1.89.11,2.33.83a5.2,5.2,0,0,1,.26.85c.38.94,1.74.89,2.51,1.28,1,.51.68,1.76,1.53,2.4s2.6-.36,3.53.43a4.47,4.47,0,0,1,.73,1.19,2.25,2.25,0,0,0,2.92.75c.47-.27.93-.74,1.46-.63.73.16.82,1.22,1.42,1.66,1.28.92,3-1.64,4.38-.82.44.26.71.77,1.21.94s1-.08,1.55,0c.35.07.66.27,1,.35a.82.82,0,0,0,.94-.3c.17-.31,0-.77.32-1a.77.77,0,0,1,.45-.08,3.78,3.78,0,0,0,2.39-1.07,4.3,4.3,0,0,1,3-.56,1.76,1.76,0,0,1,1.23.46,5.13,5.13,0,0,1,.39.69c.66,1.05,2.89.83,3.64,0a6.94,6.94,0,0,1,.76-.94,1.85,1.85,0,0,1,1.61-.2,15.77,15.77,0,0,0,1.63.45,2.68,2.68,0,0,0,1.81-.41,12.57,12.57,0,0,1,1.05-.75c1.34-.68,3.17.38,4.4-.49,1-.73,1.07-2.51,2.25-3a4.29,4.29,0,0,1,1.48-.16,1.35,1.35,0,0,0,1.24-.68c.24-.64-.38-1.31-.34-2a1.5,1.5,0,0,1,1.05-1.19,8.32,8.32,0,0,1,1.66-.25.85.85,0,0,0,.88-1.09c0-.85-.31-1.67-.29-2.52a2,2,0,0,1,1.24-2,2.57,2.57,0,0,0,.92-.26c.47-.34.32-1,.22-1.61-.16-1,.47-.86.76-1.43s-.14-1.42.45-2.12a1.47,1.47,0,0,0,.41-.61c.11-.5-.45-.89-.95-1s-1.09-.35-1.21-.86.31-1,.2-1.5c-.23-1-1.76-.61-2.2-1.41s-.57-1.68-1.32-2.26-1.87-.46-2.71-.91-.41-1.83-1-2.52-2.2-.18-2.84-1c-.32-.41-.26-1-.39-1.48a2.14,2.14,0,0,0-2-1.6c-.59,0-1.28.17-1.71-.22a2.66,2.66,0,0,1-.49-1,1.93,1.93,0,0,0-1.46-1.12,4.54,4.54,0,0,1-1-.14c-.82-.32-.88-1.49-1.54-2.08-1-.85-2.52-.08-3.71-.54-.83-.32-1.35-1.2-2.2-1.49-1.23-.42-2.52.58-3.82.52a15.91,15.91,0,0,1-1.88-.43,3.52,3.52,0,0,0-3,.89c-.49.47-.86,1.08-1.48,1.35s-1.46,0-2.21.07a12.55,12.55,0,0,0-1.57.42c-1.13.28-2.41.37-2.95,1.6a2.15,2.15,0,0,1-.48.91,1.3,1.3,0,0,1-.57.23,14,14,0,0,0-3,.79,3,3,0,0,0-1.86,2.35,6.26,6.26,0,0,1,0,1.62c-.31.9-1.44,1.13-2.27,1.6a3.43,3.43,0,0,0-1.7,2.6,11,11,0,0,1-.11,1.42c-.29,1.35-1.64,2.08-2.61,2.9A4.05,4.05,0,0,0,71,210.83c-.36.85.19,1.7-.23,2.57A4.22,4.22,0,0,1,68.85,215c-.71.42-1.45,1.05-1.44,1.88a6.32,6.32,0,0,1,.06.75c-.11,1.13-2,1.45-2,2.58a1.76,1.76,0,0,0,.85,1.38,3.11,3.11,0,0,1,1.17,1.19C67.74,223.43,67.41,224.35,67.59,225Z" style="fill:#263238"></path><path d="M106.21,199.16c3.77,1.41,6.46,2.66,7.37,16.41.65,9.83-2.79,12.66-4.43,13.56a15.18,15.18,0,0,1-6.41,1.31l1.08,6.21s6.78,2.95,7.39,8.44C97.48,243.75,90.79,240,90.79,240l-2.88-16.5a3.56,3.56,0,0,1-3.23.7c-4.11-1.46-5.46-6.23-3.56-8.42a3.86,3.86,0,0,1,6.33.22S85.6,206.82,91,202.42C97.29,197.26,101.79,197.49,106.21,199.16Z" style="fill:#9e6767"></path><path d="M100.62,222.2a2.32,2.32,0,0,0,2.21,2.66,2.77,2.77,0,0,0,3-2.28Z" style="fill:#874c4c"></path><path d="M103.63,224.79a2,2,0,0,0-2.29-1.85,2.44,2.44,0,0,0-.67.17,2.45,2.45,0,0,0,3,1.68Z" style="fill:#f28f8f"></path><path d="M100.16,213.86a1.45,1.45,0,0,1-1.34,1.45,1.26,1.26,0,0,1-1.44-1.18,1.45,1.45,0,0,1,1.34-1.45A1.26,1.26,0,0,1,100.16,213.86Z" style="fill:#263238"></path><path d="M110.47,212.24a1.45,1.45,0,0,1-1.34,1.45,1.27,1.27,0,0,1-1.44-1.19,1.46,1.46,0,0,1,1.34-1.45A1.27,1.27,0,0,1,110.47,212.24Z" style="fill:#263238"></path><polygon points="103.81 211.55 104.89 219.14 108.98 217.84 103.81 211.55" style="fill:#874c4c"></polygon><path d="M102.74,230.44c-4.13-.17-10.48-1.07-13.4-5.5a9,9,0,0,0,2.51,4.49c2.87,2.49,11.27,3.18,11.27,3.18Z" style="fill:#874c4c"></path><path d="M98.54,209.4l-3,2.53a1.88,1.88,0,0,1,.26-2.66A1.91,1.91,0,0,1,98.54,209.4Z" style="fill:#263238"></path><path d="M111.12,209l-3.65-1a2,2,0,0,1,2.42-1.29A1.81,1.81,0,0,1,111.12,209Z" style="fill:#263238"></path><path d="M98.94,197.91c-5.68,1.33-13.08,6.64-12.73,12.38s1.81,7.25,2.29,7.9a1.79,1.79,0,0,0,2.35.61c1.91-1.24-.54-5.12,1.12-7,2.2-2.5.61-6,3.9-7.8a5.44,5.44,0,0,1,4.36-.39,1.62,1.62,0,0,0,.29.8,2.8,2.8,0,0,0,2.26.75,2.19,2.19,0,0,1-.41,1.43,1.45,1.45,0,0,0-.15,1.44c.52.8,2,.19,2.58,1a.79.79,0,0,1-.12,1,1.39,1.39,0,0,0,.72-1.28,1.41,1.41,0,0,0-.87-1.19c-.34-.13-.78-.17-.92-.5a.72.72,0,0,1,0-.41c.16-.62.8-1,1.34-1.29s1.09-.9.92-1.52-1-.83-1.65-1.09h0a3.94,3.94,0,0,1,2.94-1.33c2.75-.13,4.58,2.74,4.58,2.74C111,199,104.63,196.58,98.94,197.91Z" style="fill:#263238"></path><path d="M90,235.46c.45,2.68-.59,3-3.77,5.27s-5.6,3.65-6.72,4.43-2.31,10.93,3.12,23.32S93,284,96.49,290.78,105,310.43,114.05,317c8.2-6.21,29.27-42.12,29.27-42.12l-12.7-6.31-2.44-7.22A15.56,15.56,0,0,0,128,250c-2.52-5.94-5-6-9.51-9.66a81.07,81.07,0,0,0-7.45-5.24s-3.94.58-5.46.77-2-.61-2.25-2.1Z" style="fill:#9e6767"></path><path d="M111,235.07c4.87-.61,8.27-.36,12.93,4.68s20,24.91,20,24.91l-10.16,9.51s-17.66-27.56-21.86-32.06S106,235.7,106,235.7Z" style="fill:#874c4c"></path><path d="M89.76,234.15c-.93,1.77-.63,5.1.39,13.27s2.23,22.69-5.46,25.43a65.67,65.67,0,0,0,4,6.64c9.31.06,28.22-4,39.5-18.18,5.82-10.74-1.83-17.87-7.2-19.58-4.24-1.35-9.63-3.95-13.72-5.66a14.44,14.44,0,0,1-3.94-2.33,3.43,3.43,0,0,0,.71,1.83s13.52,11.35,15,23.46c-10.59-4.45-15.68-9.25-20.69-13-4.77-3.59-7.37-5.91-8.28-10.31Z" style="fill:#37474f"></path><path d="M93.93,286.61a33.34,33.34,0,0,1,2.56,4.17c3.5,6.83,8.51,19.65,17.56,26.18,8.2-6.21,29.27-42.12,29.27-42.12l-12.7-6.31c-.45,4.41-12.07,14.13-22.64,16.62s-14,1.46-14,1.46Z" style="fill:#37474f"></path></g><g id="freepik--Mobile--inject-225"><path d="M144.83,234.53c-.08-.05-.21,0-.37.07l-12.21,7.34a2,2,0,0,0-.79,1.09l-6.25,26.7c0,.2,0,.34.09.4l1.69.94a.44.44,0,0,0,.38-.07l12.2-7.35a2,2,0,0,0,.79-1.08l6.25-26.7c0-.21,0-.35-.08-.4Z" style="fill:#455a64"></path><path d="M133.47,243.34a1.84,1.84,0,0,0-.31.63l-6.25,26.69c0,.2,0,.34.06.4-.16-.1-1.59-.89-1.67-.93s-.14-.2-.09-.4l6.25-26.7a1.88,1.88,0,0,1,.32-.63Z" style="fill:#37474f"></path><path d="M127.37,271l12.2-7.35a2,2,0,0,0,.79-1.08l6.25-26.7c.09-.39-.11-.54-.46-.33L134,242.88a2,2,0,0,0-.79,1.09l-6.25,26.69C126.82,271.06,127,271.21,127.37,271Z" style="fill:#263238"></path><path d="M133.7,248.13l.64-2.71a2.29,2.29,0,0,1,.91-1.25l.47-.28c.63-.38,1-.11.84.6l-.64,2.72a2.23,2.23,0,0,1-.91,1.24l-.47.29C133.91,249.12,133.54,248.85,133.7,248.13Z" style="fill:#37474f"></path><path d="M134.19,247.75a2.1,2.1,0,0,1,.86-1.14c.39-.23.62-.1.53.3a2.12,2.12,0,0,1-.87,1.14C134.33,248.28,134.09,248.15,134.19,247.75Z" style="fill:#455a64"></path><path d="M134.53,247.54A1.08,1.08,0,0,1,135,247c.2-.12.32-.05.27.15a1.12,1.12,0,0,1-.44.59C134.6,247.81,134.48,247.75,134.53,247.54Z" style="fill:#fff;opacity:0.2"></path><path d="M134.68,245.73a2.1,2.1,0,0,1,.86-1.14c.38-.23.62-.1.53.3a2.12,2.12,0,0,1-.87,1.14C134.82,246.26,134.58,246.13,134.68,245.73Z" style="fill:#455a64"></path><path d="M135,245.52a1,1,0,0,1,.44-.58c.19-.12.31-.05.27.16a1.1,1.1,0,0,1-.45.58C135.09,245.8,135,245.73,135,245.52Z" style="fill:#fff;opacity:0.2"></path><path d="M131.93,246l-.23-.12a.25.25,0,0,0-.22,0l-.23.15a.21.21,0,0,0-.1.14l-.57,2.43a.4.4,0,0,0,.19.42l.22.13a.22.22,0,0,0,.22,0l.24-.14a.24.24,0,0,0,.1-.15l.57-2.42A.43.43,0,0,0,131.93,246Z" style="fill:#263238"></path><path d="M131.32,249l.56-2.42a.4.4,0,0,0-.19-.43l-.22-.12a.21.21,0,0,0-.32.14l-.57,2.43a.4.4,0,0,0,.19.42l.22.13A.22.22,0,0,0,131.32,249Z" style="fill:#455a64"></path><path d="M131,249.94l-.22-.12a.2.2,0,0,0-.22,0l-.24.14a.28.28,0,0,0-.1.15l-.56,2.42a.4.4,0,0,0,.18.43l.23.12a.22.22,0,0,0,.22,0l.23-.14a.17.17,0,0,0,.1-.14l.57-2.43A.4.4,0,0,0,131,249.94Z" style="fill:#263238"></path><path d="M130.38,252.93l.57-2.43a.4.4,0,0,0-.19-.42l-.23-.12a.21.21,0,0,0-.32.14l-.56,2.42a.4.4,0,0,0,.18.43l.23.12A.21.21,0,0,0,130.38,252.93Z" style="fill:#455a64"></path></g><path d="M129.3,252.27l.29-1.25c-.17-2-1.71-2.6-2.35-.3-.51,1.83-3.1,5.07-3.53,7.4s-.07,4.48-2.34,7.23c-2.4,2.91-20.62,11.75-20.62,11.75L90.58,256.86s-4.09-10.24-9-13c-3.43,1.78-7.91,5.16-8.18,9.15-.35,5.15,2.21,10.16,7.52,19.74,5.07,9.13,8.58,14.41,11.21,17.52,3.25,3.84,6,5.18,13.67,1s14.41-11,22.13-17.36c3.72-3.06,6.21-4.72,8.92-7.85a15.43,15.43,0,0,0,2.6-3.89,8.93,8.93,0,0,0,.89-4.15,2.62,2.62,0,0,1,0-.79,4.84,4.84,0,0,1,.25-.73,5.08,5.08,0,0,0,.42-1.41,7.43,7.43,0,0,0-.15-1.56,5.74,5.74,0,0,1-.09-.71,3.84,3.84,0,0,1,.09-.75,5.5,5.5,0,0,0,.2-1.93,1,1,0,0,0-.61-.78s.29-.79.37-1.06a5.44,5.44,0,0,0,.23-1.19.54.54,0,0,0-.11-.45.52.52,0,0,0-.25-.11c-1.46-.31-2.47.83-3.26,1.87-2.05,2.73-2.77,4.86-5.13,7.36-3.25,3.44-4.19,1.68-4.19,1.68Z" style="fill:#9e6767"></path><path d="M100.77,277.29a24.84,24.84,0,0,0-5.25,3.42A11.31,11.31,0,0,1,100.2,276Z" style="fill:#874c4c"></path><path d="M140.44,249.57a25.31,25.31,0,0,1-.93,2.37c-.34.79-.7,1.55-1,2.33-.18.38-.33.78-.53,1.17s-.4.75-.62,1.12c-.44.73-.91,1.44-1.42,2.13l.6-1.13c.21-.37.41-.75.6-1.12s.39-.75.57-1.14.33-.77.51-1.16c.35-.78.72-1.54,1.11-2.3Z" style="fill:#874c4c"></path><path d="M140.78,252.76a10.33,10.33,0,0,1-.46,1.92c-.2.63-.43,1.24-.68,1.85s-.52,1.2-.82,1.78a13.69,13.69,0,0,1-1,1.71c.26-.6.5-1.21.75-1.81l.75-1.81.74-1.8C140.33,254,140.58,253.39,140.78,252.76Z" style="fill:#874c4c"></path><g id="freepik--Bottom--inject-225"><path d="M243.62,350.17c-.66-2.2-2-1.48-6.66-4.07l-2.91-1.64h0c-3.66-2.1-7.38-4.41-9.49-6.52-2.68-2.68-6-6.1-6.93-7.21s-2.09-2.7-3.47-4.54-7.36-10.93-17.22-22.67c-2.6-3.1-3.76-4.06-13.33-9.54C172,287.34,153,278.8,153,278.8L121.1,290.89c4.8,15.19,12.67,21.12,26,23.93,15,3.15,37.19,4.29,37.19,4.29a35.38,35.38,0,0,0,6.58,7.18A94.44,94.44,0,0,0,204,335.52c2.68,1.78,4.42,3.05,5.38,3.79a6.75,6.75,0,0,1,2.75,3.71c.45,1.89.27,4.74,1.85,6.42s2.72,1.6,5.14,1.62,3.12-.21,5.31,1.5,3.81,5.09,11,4.17C240.66,356.07,244.29,352.4,243.62,350.17Z" style="fill:#9e6767"></path><path d="M176.7,318.6c-.28-3.9-1.22-20.49-2.36-29.59-4.33-2.22-8.39-4.17-12.14-6l-17.7,7-10.23,19.82a36.88,36.88,0,0,0,12.86,5C156.56,316.81,168.88,318,176.7,318.6Z" style="fill:#874c4c"></path><path d="M184.32,319.11a22.22,22.22,0,0,1-1.94-5.91A19.67,19.67,0,0,0,183,319Z" style="fill:#874c4c"></path><path d="M110.66,313c7.27,11,21.06,10.68,29.78,5.59,6.49-3.79,12.35-15.08,16.83-25.16,6.19-13.95,9.73-27.49,8.6-32.77-.78-3.64-3-4.55-6-5.26-4.64-1.08-9.33.85-18.27,9.93-7.93,8.06-11.92,14.15-20.46,25.55a36.68,36.68,0,0,0-8.67,6.7,12.88,12.88,0,0,0-1.82,15.33Z" style="fill:#9e6767"></path><path d="M117.44,308.57c-.65-3.46-.52-13,3.67-17.64a26,26,0,0,0-3.3,2.06C115.74,297.2,115.16,302.43,117.44,308.57Z" style="fill:#874c4c"></path><path d="M186.27,338.75a22.44,22.44,0,0,1-8.71-10.39c-1.42-3.37-2.11-5.24-2.35-7.57s-.6-5.31-1.23-13-.67-18.45-1.9-31c-1.71-17.48-7.23-20.11-12.25-21.33,0,0-7.38,4.34-9.27,12.92-1.65,7.44.25,16.2,2.85,26,1.65,6.2,4.3,12.2,5.66,16.14S162.4,320,162.91,322a17.19,17.19,0,0,1,.63,6.2c-.28,1.84-1.49,4.31-.69,6.38s1.85,2.41,4,3.32,2.87,1,4.2,3.28c1.42,2.49,1.49,6.17,8.31,7.74,3.57.82,8.08-.26,11.38-2.26a3.12,3.12,0,0,0,1.73-3.06C192.31,342,189.38,340.83,186.27,338.75Z" style="fill:#9e6767"></path><path d="M151.33,279.42c-.53,2.11-1.45,4.14.39,14.85.49,2.83,1.05,5.57,1.47,7.72.56-1.08,1.11-2.18,1.64-3.29C153.26,293.33,150.79,284.15,151.33,279.42Z" style="fill:#874c4c"></path></g></g><path d="M240,360.17a.53.53,0,0,1-.27-.08.52.52,0,0,1-.16-.71l26-40.62a.52.52,0,0,1,.71-.15.51.51,0,0,1,.15.7l-26,40.62A.5.5,0,0,1,240,360.17Z" style="fill:#fafafa"></path><path d="M249.62,354.56a.59.59,0,0,1-.22-.05.51.51,0,0,1-.24-.68l16.4-35a.51.51,0,1,1,.92.44l-16.4,35A.51.51,0,0,1,249.62,354.56Z" style="fill:#fafafa"></path><path d="M230.22,365.73a.55.55,0,0,1-.32-.1.52.52,0,0,1-.09-.72l35.81-46.18a.52.52,0,0,1,.72-.09.51.51,0,0,1,.09.71l-35.81,46.19A.53.53,0,0,1,230.22,365.73Z" style="fill:#fafafa"></path><path d="M265.33,345.74h0a.51.51,0,0,1-.5-.53l.69-26.18a.52.52,0,0,1,.51-.5h0a.5.5,0,0,1,.49.52l-.69,26.19A.51.51,0,0,1,265.33,345.74Z" style="fill:#fafafa"></path><path d="M285.28,334.17a.49.49,0,0,1-.3-.1l-19.26-14.63a.5.5,0,0,1-.1-.71.51.51,0,0,1,.71-.1l19.26,14.63a.5.5,0,0,1,.1.71A.51.51,0,0,1,285.28,334.17Z" style="fill:#fafafa"></path><path d="M297.62,326.72l-.11,0-31.6-7.16a.51.51,0,0,1,.23-1l31.59,7.17a.51.51,0,0,1,.39.61A.52.52,0,0,1,297.62,326.72Z" style="fill:#fafafa"></path><path d="M274.67,340.38a.51.51,0,0,1-.47-.31l-8.65-20.84a.5.5,0,0,1,.28-.66.5.5,0,0,1,.66.27l8.65,20.84a.51.51,0,0,1-.28.66A.43.43,0,0,1,274.67,340.38Z" style="fill:#fafafa"></path><path d="M266.81,314.47a2.28,2.28,0,0,0-2.27.23,7.09,7.09,0,0,0-3.21,5.56,2.25,2.25,0,0,0,.94,2.08l1.58.92a2.23,2.23,0,0,0,2.27-.23,7.07,7.07,0,0,0,3.21-5.56,2.25,2.25,0,0,0-.94-2.08Z" style="fill:#37474f"></path><path d="M266.12,315.62c1.78-1,3.21-.2,3.21,1.85a7.07,7.07,0,0,1-3.21,5.56c-1.77,1-3.21.2-3.21-1.85A7.09,7.09,0,0,1,266.12,315.62Z" style="fill:#455a64"></path><path d="M270.73,300.69a1.67,1.67,0,0,0-2,1.21L238.36,420.08a6.38,6.38,0,0,1-10,4.21l-1.68,2.91a11.18,11.18,0,0,0,5.58,1.59,9.16,9.16,0,0,0,3.58-.72,10.16,10.16,0,0,0,5.78-7.15l30.33-118.19A1.67,1.67,0,0,0,270.73,300.69Z" style="fill:#BA68C8"></path><path d="M270.73,300.69a1.67,1.67,0,0,0-2,1.21L238.36,420.08a6.38,6.38,0,0,1-10,4.21l-1.68,2.91a11.18,11.18,0,0,0,5.58,1.59,9.16,9.16,0,0,0,3.58-.72,10.16,10.16,0,0,0,5.78-7.15l30.33-118.19A1.67,1.67,0,0,0,270.73,300.69Z" style="opacity:0.25"></path></g></g><g id="freepik--current-location--inject-225"><g id="freepik--Pin--inject-225"><path d="M385.24,121.3a3.82,3.82,0,0,1-.47.35l9.42-5.32s23.24-18.78,23.24-36.07V76.32c0-17.29-11.38-37.87-25.42-46-.48-.27-1-.53-1.44-.77s-.95-.47-1.41-.67a24,24,0,0,0-2.77-1c-.45-.14-.9-.26-1.34-.36a9.73,9.73,0,0,0-1.31-.24,11.16,11.16,0,0,0-1.28-.15c-.42,0-.83-.06-1.24-.06a13,13,0,0,0-7.32,2.14l-8.81,5.07c4.48-2.22,10.32-1.75,16.73,1.94,10.06,5.81,18.76,18,22.89,30.83h0a49.74,49.74,0,0,1,2.55,15.15v3.94C407.26,99.44,392.18,114.89,385.24,121.3ZM369.12,58.23c0,8.11,5.68,18,12.7,22,6.25,3.58,11.41,1.42,12.5-4.79l-.06,0c-.25-.1-.5-.19-.74-.3a7.36,7.36,0,0,1-.75-.36c-.26-.12-.5-.26-.76-.41-7-4-12.72-13.92-12.72-22,0-.28,0-.54,0-.8s0-.31,0-.46a10.83,10.83,0,0,1,.16-1.32C373.59,47.64,369.12,51,369.12,58.23Z" style="fill:#BA68C8"></path><path d="M379.5,49.79a10.83,10.83,0,0,0-.16,1.32c0,.15,0,.3,0,.46s0,.52,0,.8c0,8.09,5.68,18,12.72,22,.26.15.5.29.76.41a7.36,7.36,0,0,0,.75.36c.24.11.49.2.74.3l.06,0c-1.09,6.21-6.25,8.37-12.5,4.79-7-4.06-12.7-13.92-12.7-22C369.12,51,373.59,47.64,379.5,49.79Z" style="opacity:0.30000000000000004"></path><path d="M356.4,56.76c0,14.32,17.44,51.26,23.44,63.52a3.42,3.42,0,0,0,5.4,1c6.94-6.4,22-21.85,22-35.16V82.19c0-17.28-11.39-37.87-25.43-46s-25.43-.67-25.43,16.62Zm12.71,1.47c0-8.11,5.7-11.39,12.72-7.34s12.71,13.92,12.71,22-5.69,11.4-12.71,7.35S369.11,66.34,369.11,58.23Z" style="fill:#BA68C8"></path><path d="M356.4,56.76c0,14.32,17.44,51.26,23.44,63.52a3.42,3.42,0,0,0,5.4,1c6.94-6.4,22-21.85,22-35.16V82.19c0-17.28-11.39-37.87-25.43-46s-25.43-.67-25.43,16.62Zm12.71,1.47c0-8.11,5.7-11.39,12.72-7.34s12.71,13.92,12.71,22-5.69,11.4-12.71,7.35S369.11,66.34,369.11,58.23Z" style="fill:#BA68C8"></path><g style="opacity:0.4"><path d="M356.4,56.76c0,14.32,17.44,51.26,23.44,63.52a3.42,3.42,0,0,0,5.4,1c6.94-6.4,22-21.85,22-35.16V82.19c0-17.28-11.39-37.87-25.43-46s-25.43-.67-25.43,16.62Zm12.71,1.47c0-8.11,5.7-11.39,12.72-7.34s12.71,13.92,12.71,22-5.69,11.4-12.71,7.35S369.11,66.34,369.11,58.23Z" style="fill:#fff"></path></g></g><g id="freepik--Bubble--inject-225"><g id="freepik--speech-bubble--inject-225"><path d="M419.57,167.89a5.8,5.8,0,0,1,.83,2.79v36c0,1.57-1,2.32-2.26,1.9a0,0,0,0,1,0,0,3.32,3.32,0,0,1-.54-.25l-80.22-46.3a6.27,6.27,0,0,1-2.84-4.91v-36a3.21,3.21,0,0,1,.1-.81c.32-1.2,1.43-1.58,2.73-.83l80.23,46.31a5.69,5.69,0,0,1,2,2.11Z" style="fill:#fafafa"></path><path d="M336.07,120.49a1.09,1.09,0,0,1,.55.19L416.85,167a4.17,4.17,0,0,1,1.36,1.38l.13.22a4.53,4.53,0,0,1,.65,2.09v36a1.18,1.18,0,0,1-.11.6h-.05a.81.81,0,0,1-.25,0,1.48,1.48,0,0,1-.31-.15l-80.22-46.3a4.83,4.83,0,0,1-2.14-3.68v-36a1.84,1.84,0,0,1,0-.44,1,1,0,0,1,.07-.17h0m0-1.42a1.49,1.49,0,0,0-1.47,1.22,3.21,3.21,0,0,0-.1.81v36a6.27,6.27,0,0,0,2.84,4.91l80.22,46.3a3.32,3.32,0,0,0,.54.25,0,0,0,0,0,0,0,2.16,2.16,0,0,0,.69.11c.94,0,1.57-.73,1.57-2v-36a5.8,5.8,0,0,0-.83-2.79h0a5.69,5.69,0,0,0-2-2.11l-80.23-46.31a2.57,2.57,0,0,0-1.26-.39Z" style="fill:#BA68C8"></path><path d="M428.37,202.11a6.27,6.27,0,0,1-2.83,4.91l-2.31,1.33a6.31,6.31,0,0,1-5.18.23c1.33.51,2.35-.25,2.35-1.86v-36a5.83,5.83,0,0,0-.83-2.8l8-4.6a5.83,5.83,0,0,1,.83,2.79Z" style="fill:#BA68C8"></path><path d="M428.37,202.11a6.27,6.27,0,0,1-2.83,4.91l-2.31,1.33a6.31,6.31,0,0,1-5.18.23c1.33.51,2.35-.25,2.35-1.86v-36a5.83,5.83,0,0,0-.83-2.8l8-4.6a5.83,5.83,0,0,1,.83,2.79Z" style="fill:#fff;opacity:0.30000000000000004"></path><path d="M334.6,120.29c.33-1.2,1.42-1.59,2.73-.83l80.24,46.31a5.59,5.59,0,0,1,2,2.12l8-4.6a5.67,5.67,0,0,0-2-2.12l-80.22-46.31a6.29,6.29,0,0,0-5.67,0l-2.32,1.33A6.29,6.29,0,0,0,334.6,120.29Z" style="fill:#BA68C8"></path><path d="M334.6,120.29c.33-1.2,1.42-1.59,2.73-.83l80.24,46.31a5.59,5.59,0,0,1,2,2.12l8-4.6a5.67,5.67,0,0,0-2-2.12l-80.22-46.31a6.29,6.29,0,0,0-5.67,0l-2.32,1.33A6.29,6.29,0,0,0,334.6,120.29Z" style="fill:#fff;opacity:0.5"></path></g><path d="M339.89,140.31a13.54,13.54,0,0,1-.66-4.67,7.52,7.52,0,0,1,.68-3.85c.45-.67,1.14-.73,2.08-.19a3.53,3.53,0,0,1,.94.75,1,1,0,0,1,.22.36,1.24,1.24,0,0,1,.05.44,2.59,2.59,0,0,1-.12.83c-.08.23-.18.27-.3.11a2.93,2.93,0,0,0-.74-.65.66.66,0,0,0-1.06.34,7.28,7.28,0,0,0-.34,2.67,11.44,11.44,0,0,0,.34,3.08,2.6,2.6,0,0,0,1.09,1.57,1.19,1.19,0,0,0,.39.16,2.3,2.3,0,0,0,.39.05l.09,0a.76.76,0,0,1,.27.51,4.35,4.35,0,0,1,.09.92.77.77,0,0,1-.06.34c0,.08-.11.11-.22.11a1.25,1.25,0,0,1-.46-.07,3.1,3.1,0,0,1-.6-.27A4.73,4.73,0,0,1,339.89,140.31Z" style="fill:#455a64"></path><path d="M344.75,143.61a6,6,0,0,1-.64-2.8v-7.45c0-.3.18-.36.52-.16l.32.19a.88.88,0,0,1,.53.76v7.37a3.17,3.17,0,0,0,.28,1.33,1.92,1.92,0,0,0,.77.88.57.57,0,0,0,.75,0,1.38,1.38,0,0,0,.29-1v-7.37c0-.31.18-.36.53-.16l.3.18a.89.89,0,0,1,.53.76v7.45a2.61,2.61,0,0,1-.63,2.07c-.42.33-1,.28-1.77-.15A4.43,4.43,0,0,1,344.75,143.61Z" style="fill:#455a64"></path><path d="M350.15,147.06V137a.61.61,0,0,1,.09-.4c.05-.06.15-.05.27,0l1.65,1a4.43,4.43,0,0,1,2.07,4.2c0,1.25-.32,2-1,2.11V144a5.64,5.64,0,0,1,.7,2.12l.62,3.41a.52.52,0,0,0,0,.11c0,.05,0,.08,0,.11,0,.25-.19.26-.56,0l-.3-.18a.9.9,0,0,1-.53-.67l-.56-3.36a3.5,3.5,0,0,0-.29-.9,1.19,1.19,0,0,0-.48-.49l-.38-.22v3.9c0,.31-.19.36-.55.15l-.28-.16A.9.9,0,0,1,350.15,147.06Zm2.08-4.63q.28.16.48-.15a2.07,2.07,0,0,0,.19-1,3.18,3.18,0,0,0-.19-1.22,1.32,1.32,0,0,0-.52-.66l-.69-.4v3Z" style="fill:#455a64"></path><path d="M355.42,150.1v-10a.72.72,0,0,1,.08-.4c.06-.06.15-.05.28,0l1.65,1a4.44,4.44,0,0,1,2.06,4.2c0,1.25-.32,2-1,2.11V147a5.9,5.9,0,0,1,.7,2.12l.61,3.41a.43.43,0,0,1,0,.12.44.44,0,0,1,0,.1c0,.25-.19.26-.56.05l-.3-.17a.94.94,0,0,1-.53-.68l-.57-3.36a3.2,3.2,0,0,0-.28-.9,1.21,1.21,0,0,0-.49-.49l-.38-.22v3.91c0,.3-.18.35-.54.14l-.28-.16A.9.9,0,0,1,355.42,150.1Zm2.08-4.63c.19.11.34.06.47-.15a2,2,0,0,0,.2-1,3.22,3.22,0,0,0-.19-1.22,1.32,1.32,0,0,0-.52-.66l-.7-.4v3Z" style="fill:#455a64"></path><path d="M360.79,153.5a1.19,1.19,0,0,1-.08-.5v-9.9c0-.21,0-.34.08-.4s.14,0,.27,0l3,1.73a.44.44,0,0,1,.21.28,2,2,0,0,1,.06.55v.41a1.28,1.28,0,0,1-.06.48c0,.09-.11.1-.21.05l-2-1.15v2.76l1.77,1a.47.47,0,0,1,.2.28,1.94,1.94,0,0,1,.07.55v.41a1.27,1.27,0,0,1-.07.48c0,.09-.11.1-.2.05l-1.77-1v3l2,1.15a.44.44,0,0,1,.2.27,2,2,0,0,1,.06.56V155a1.35,1.35,0,0,1-.06.49c0,.08-.11.09-.2,0l-3-1.74A.56.56,0,0,1,360.79,153.5Z" style="fill:#455a64"></path><path d="M365.35,155.84V145.62c0-.3.17-.36.52-.15l.27.15a1.05,1.05,0,0,1,.3.25,1.39,1.39,0,0,1,.18.42l2,7c.09.27.19.72.32,1.33h0a11.31,11.31,0,0,1-.08-1.23V147.7c0-.31.18-.36.53-.16l.2.12a.88.88,0,0,1,.53.76v10.21c0,.31-.18.36-.53.16l-.2-.12a1,1,0,0,1-.5-.66l-2.12-7.27c-.07-.23-.16-.61-.28-1.16h-.05a9.64,9.64,0,0,1,.08,1.12v5.85c0,.3-.17.36-.52.15l-.21-.11A.88.88,0,0,1,365.35,155.84Z" style="fill:#455a64"></path><path d="M372.44,159.93v-8.87l-1.25-.72a.5.5,0,0,1-.2-.28,1.67,1.67,0,0,1-.07-.55v-.42a1,1,0,0,1,.07-.47c0-.09.11-.11.2-.05l3.88,2.24a.44.44,0,0,1,.21.28,1.66,1.66,0,0,1,.07.56v.41a1,1,0,0,1-.07.48c0,.08-.11.1-.21,0l-1.25-.72v8.87c0,.3-.17.35-.52.15l-.33-.19A.88.88,0,0,1,372.44,159.93Z" style="fill:#455a64"></path><path d="M377.61,163.21a1.16,1.16,0,0,1-.08-.5V152.65c0-.3.17-.35.52-.15l.32.18a1.27,1.27,0,0,1,.4.34.74.74,0,0,1,.12.42v8.87l1.75,1a.47.47,0,0,1,.2.28,1.67,1.67,0,0,1,.07.55v.41a1,1,0,0,1-.07.48c0,.09-.11.11-.2.05l-2.76-1.59A.62.62,0,0,1,377.61,163.21Z" style="fill:#455a64"></path><path d="M381.29,159.91q0-5.62,2.65-4.09c1.75,1,2.63,3.4,2.63,7.15s-.88,5.15-2.63,4.13S381.29,163.69,381.29,159.91Zm3.59,5.08a8.26,8.26,0,0,0,.31-2.82,11.86,11.86,0,0,0-.31-3.16,2.28,2.28,0,0,0-.93-1.42.6.6,0,0,0-1,.33,8.3,8.3,0,0,0-.31,2.8,12.59,12.59,0,0,0,.31,3.18,2.29,2.29,0,0,0,1,1.44C384.36,165.58,384.67,165.46,384.88,165Z" style="fill:#455a64"></path><path d="M388.08,168.13a13.53,13.53,0,0,1-.65-4.67,7.55,7.55,0,0,1,.67-3.85c.46-.66,1.15-.73,2.08-.19a4,4,0,0,1,.94.75.86.86,0,0,1,.22.36,1.24,1.24,0,0,1,.05.44,2.59,2.59,0,0,1-.12.83q-.12.34-.3.12a2.6,2.6,0,0,0-.74-.65.66.66,0,0,0-1.05.33,7.09,7.09,0,0,0-.35,2.67,11,11,0,0,0,.35,3.09,2.56,2.56,0,0,0,1.08,1.56,1.45,1.45,0,0,0,.4.17l.38,0,.09,0q.18.09.27.51a4.19,4.19,0,0,1,.09.91,1,1,0,0,1-.05.34.23.23,0,0,1-.23.12,1.3,1.3,0,0,1-.46-.08,3.1,3.1,0,0,1-.6-.27A4.69,4.69,0,0,1,388.08,168.13Z" style="fill:#455a64"></path><path d="M391.78,171.24s0-.12,0-.26l1.68-9.18c0-.24.23-.26.56-.07l.54.31a1,1,0,0,1,.57.72l1.67,11.12a2.16,2.16,0,0,1,0,.28c0,.21-.14.24-.42.07L396,174a.87.87,0,0,1-.48-.58l-.33-2.36-1.79-1-.33,2c0,.18-.17.2-.44,0l-.41-.24Q391.78,171.55,391.78,171.24Zm3.22-2-.55-4c-.05-.37-.09-.76-.12-1.19l-.05,0c0,.39-.08.74-.13,1l-.54,3.37Z" style="fill:#455a64"></path><path d="M398.28,174.85V166l-1.25-.72a.46.46,0,0,1-.21-.29,2,2,0,0,1-.06-.55V164a1.32,1.32,0,0,1,.06-.48c0-.08.11-.1.21,0l3.88,2.24a.44.44,0,0,1,.21.28,1.62,1.62,0,0,1,.07.56V167a1,1,0,0,1-.07.48c0,.08-.11.09-.21,0l-1.25-.73v8.87c0,.31-.18.36-.53.16l-.33-.19A.9.9,0,0,1,398.28,174.85Z" style="fill:#455a64"></path><path d="M402,177V166.76c0-.32.17-.37.52-.17l.34.19a.89.89,0,0,1,.51.77v10.22c0,.31-.17.37-.51.17l-.34-.19A.88.88,0,0,1,402,177Z" style="fill:#455a64"></path><path d="M404.42,173.27c0-3.75.89-5.12,2.65-4.1s2.64,3.4,2.64,7.16-.88,5.15-2.64,4.13S404.42,177.05,404.42,173.27Zm3.6,5.07a8.52,8.52,0,0,0,.3-2.82,12.3,12.3,0,0,0-.3-3.15,2.23,2.23,0,0,0-.94-1.42.59.59,0,0,0-.95.33,8,8,0,0,0-.31,2.8,12,12,0,0,0,.31,3.17,2.28,2.28,0,0,0,.95,1.45C407.5,178.94,407.81,178.82,408,178.34Z" style="fill:#455a64"></path><path d="M410.75,182.05V171.83c0-.3.17-.35.52-.15l.27.15a1.25,1.25,0,0,1,.3.25,1.35,1.35,0,0,1,.18.43l2,7c.09.28.19.72.32,1.34h.05a11.31,11.31,0,0,1-.08-1.23v-5.69c0-.31.18-.36.53-.16l.2.12a.89.89,0,0,1,.53.76v10.22c0,.3-.18.35-.53.15l-.2-.12a1,1,0,0,1-.31-.25,1,1,0,0,1-.19-.41L412.25,177c-.07-.23-.16-.61-.28-1.15h-.05a9.64,9.64,0,0,1,.08,1.12v5.85c0,.31-.17.36-.52.16l-.21-.12A.88.88,0,0,1,410.75,182.05Z" style="fill:#455a64"></path><path d="M343.79,156.68v-5.92l-.89-.51a.24.24,0,0,1-.1-.15,1.08,1.08,0,0,1,0-.3v-.2a.69.69,0,0,1,0-.26s.05-.05.1,0l2.49,1.43a.25.25,0,0,1,.11.15,1.15,1.15,0,0,1,0,.3v.2a.72.72,0,0,1,0,.26c0,.05-.06.05-.11,0l-.88-.51v5.93c0,.17-.1.19-.29.08l-.14-.08A.49.49,0,0,1,343.79,156.68Z" style="fill:#e0e0e0"></path><path d="M346.45,158a3.7,3.7,0,0,1-.4-1.75v-4.85c0-.17.1-.2.29-.09l.14.08a.49.49,0,0,1,.29.42v4.84a2.11,2.11,0,0,0,.22,1,1.47,1.47,0,0,0,.57.65c.23.14.42.14.56,0a.89.89,0,0,0,.22-.7v-4.84c0-.17.1-.2.29-.09l.14.08a.49.49,0,0,1,.29.42V158a1.6,1.6,0,0,1-.4,1.3c-.26.22-.63.19-1.1-.09A2.73,2.73,0,0,1,346.45,158Z" style="fill:#e0e0e0"></path><path d="M350,160.41a.7.7,0,0,1,0-.27v-6.52c0-.17.09-.2.28-.09l.14.08a.47.47,0,0,1,.29.42V160l1.26.73a.25.25,0,0,1,.11.15.8.8,0,0,1,0,.3v.2a.51.51,0,0,1,0,.26s-.06,0-.11,0l-1.78-1A.31.31,0,0,1,350,160.41Z" style="fill:#e0e0e0"></path><path d="M353,161.74a3.89,3.89,0,0,1-.39-1.76v-4.85c0-.17.1-.2.29-.09l.14.08a.51.51,0,0,1,.29.42v4.84a2.11,2.11,0,0,0,.22,1,1.36,1.36,0,0,0,.57.65c.23.14.42.14.56,0a1,1,0,0,0,.22-.71v-4.84c0-.17.09-.2.29-.08l.13.08a.47.47,0,0,1,.29.42v4.84a1.68,1.68,0,0,1-.39,1.31c-.26.21-.63.18-1.1-.1A2.84,2.84,0,0,1,353,161.74Z" style="fill:#e0e0e0"></path><path d="M358,162.57l-.69-2.45c-.06-.2-.12-.45-.18-.74h0c0,.26,0,.49,0,.69v4.31c0,.17-.1.2-.29.09l-.12-.07a.49.49,0,0,1-.29-.42v-6.62c0-.17.1-.2.29-.09l.16.09a.69.69,0,0,1,.29.38l1,3.51a3.35,3.35,0,0,1,.11.55,2.07,2.07,0,0,1,.11-.42l1-2.37c0-.12.15-.13.29,0l.16.09a.47.47,0,0,1,.29.42v6.62c0,.17-.09.2-.29.09l-.12-.07a.49.49,0,0,1-.29-.42v-4.31c0-.2,0-.41,0-.65l0,0a4,4,0,0,1-.18.53l-.69,1.66c0,.09-.09.12-.17.07l-.19-.11A.41.41,0,0,1,358,162.57Z" style="fill:#e0e0e0"></path><path d="M361.94,167.32a.79.79,0,0,1-.05-.29v-6.41a.39.39,0,0,1,.05-.23s.09,0,.16,0l1.14.66a2.41,2.41,0,0,1,1,1,3.35,3.35,0,0,1,.31,1.48,2,2,0,0,1-.17.88c-.11.23-.25.34-.42.35v0a3.2,3.2,0,0,1,.74,2.11,1.74,1.74,0,0,1-.36,1.31c-.24.2-.6.16-1.07-.11l-1.15-.66A.44.44,0,0,1,361.94,167.32Zm1.28-3.27c.18.11.33.09.43-.05a1.15,1.15,0,0,0,.16-.7,2.25,2.25,0,0,0-.14-.85,1.09,1.09,0,0,0-.46-.51l-.61-.35v2.1Zm.12,3.25c.2.12.35.1.46-.05a1.37,1.37,0,0,0,.16-.79,2.11,2.11,0,0,0-.18-.91,1.18,1.18,0,0,0-.51-.57l-.67-.39v2.28Z" style="fill:#e0e0e0"></path><path d="M365.48,169.36a.72.72,0,0,1,0-.28v-6.42a.43.43,0,0,1,0-.23s.09,0,.16,0l1.9,1.1q.15.09.15.45v.2c0,.25-.05.34-.15.28l-1.39-.8v2.07l1.25.72c.09,0,.14.2.14.44v.21c0,.24-.05.33-.14.28l-1.25-.72v2.23l1.39.8a.25.25,0,0,1,.11.15.8.8,0,0,1,0,.3v.2a.54.54,0,0,1,0,.26s-.06,0-.11,0l-1.9-1.1A.44.44,0,0,1,365.48,169.36Z" style="fill:#e0e0e0"></path><path d="M368,170.75a1,1,0,0,1,0-.14l1.14-5.92c0-.13.13-.14.3,0l.27.16a.51.51,0,0,1,.31.39l1.14,7.23a1,1,0,0,1,0,.16c0,.13-.08.14-.25,0l-.18-.1a.52.52,0,0,1-.27-.33l-.25-1.69-1.29-.74-.25,1.39c0,.11-.1.12-.26,0l-.17-.1C368.12,171,368,170.87,368,170.75Zm2.1-1.22-.42-2.84c0-.12,0-.35-.07-.7l0,0,0,.23c0,.11,0,.24,0,.39l-.42,2.35Z" style="fill:#e0e0e0"></path><path d="M372,172.4a8.72,8.72,0,0,1-.42-3A4.92,4.92,0,0,1,372,167c.29-.43.72-.48,1.31-.14a2.46,2.46,0,0,1,.34.25c.12.1.21.2.3.29a.52.52,0,0,1,.11.19,1.29,1.29,0,0,1,0,.23,2,2,0,0,1-.07.44c-.05.13-.1.15-.17.06a1.85,1.85,0,0,0-.53-.49.47.47,0,0,0-.76.2,4.66,4.66,0,0,0-.25,1.86,7.27,7.27,0,0,0,.25,2.15,1.82,1.82,0,0,0,.76,1.1.81.81,0,0,0,.57.11l.06,0c.06,0,.11.13.15.29a1.82,1.82,0,0,1,.06.46c0,.17-.06.25-.17.26a.92.92,0,0,1-.31,0,1.39,1.39,0,0,1-.38-.17A3,3,0,0,1,372,172.4Z" style="fill:#e0e0e0"></path><path d="M374.78,174.58V168c0-.17.1-.2.29-.09l.15.09a.45.45,0,0,1,.28.41v2.75l1.56.9v-2.75c0-.17.09-.2.29-.09l.14.08a.49.49,0,0,1,.29.42v6.62c0,.17-.1.2-.29.09l-.14-.08a.47.47,0,0,1-.29-.42V173l-1.56-.9V175c0,.17-.09.2-.28.1l-.15-.09A.49.49,0,0,1,374.78,174.58Z" style="fill:#e0e0e0"></path><path d="M378.41,178.07a.25.25,0,0,1-.07-.17.69.69,0,0,1,0-.13.5.5,0,0,1,0-.12c.06-.27.11-.51.14-.72a5.77,5.77,0,0,0,.05-.8c0-.24.09-.3.28-.19l.09.05a.55.55,0,0,1,.28.49,3.55,3.55,0,0,1-.11,1,1.71,1.71,0,0,1-.29.62c-.11.12-.2.17-.27.12A.57.57,0,0,1,378.41,178.07Z" style="fill:#e0e0e0"></path><path d="M381.63,178.53v-2.94l-1.09-4.18a1,1,0,0,1,0-.23c0-.12.1-.12.31,0l.17.1a.79.79,0,0,1,.19.15.4.4,0,0,1,.1.18l.74,3.18.74-2.33c0-.06.05-.08.09-.07a.59.59,0,0,1,.2.08l.15.08c.19.12.29.24.29.36a.45.45,0,0,1,0,.18L382.35,176V179c0,.17-.1.19-.29.08l-.14-.08A.49.49,0,0,1,381.63,178.53Z" style="fill:#e0e0e0"></path><path d="M384.39,179.88a3.86,3.86,0,0,1-.39-1.76v-4.85c0-.16.09-.19.28-.08l.14.08a.47.47,0,0,1,.29.42v4.84a2.29,2.29,0,0,0,.22,1,1.53,1.53,0,0,0,.57.65.46.46,0,0,0,.57,0,.94.94,0,0,0,.21-.7V174.6c0-.17.1-.2.29-.09l.14.08a.49.49,0,0,1,.29.42v4.85a1.65,1.65,0,0,1-.39,1.3q-.41.32-1.11-.09A2.78,2.78,0,0,1,384.39,179.88Z" style="fill:#e0e0e0"></path><path d="M388.13,181.71a9,9,0,0,1-.41-3,4.94,4.94,0,0,1,.42-2.46c.29-.43.73-.48,1.31-.14a2,2,0,0,1,.34.25,2.81,2.81,0,0,1,.3.29.52.52,0,0,1,.11.19.75.75,0,0,1,0,.23,2,2,0,0,1-.07.44c0,.13-.1.15-.17.06a1.82,1.82,0,0,0-.52-.49c-.35-.2-.6-.13-.77.2a4.85,4.85,0,0,0-.25,1.86,7.67,7.67,0,0,0,.25,2.15,1.83,1.83,0,0,0,.77,1.1.79.79,0,0,0,.56.11h.06a.46.46,0,0,1,.16.3,2.4,2.4,0,0,1,.05.46c0,.17-.06.25-.17.26a.84.84,0,0,1-.3,0,1.59,1.59,0,0,1-.39-.17A3,3,0,0,1,388.13,181.71Z" style="fill:#e0e0e0"></path><path d="M390.5,183.72a1,1,0,0,1,0-.14l1.14-5.92c0-.13.13-.14.3,0l.28.15a.55.55,0,0,1,.3.4l1.14,7.23a1.37,1.37,0,0,1,0,.16c0,.12-.09.14-.26,0l-.18-.1a.52.52,0,0,1-.27-.33l-.24-1.69-1.3-.74-.24,1.39c0,.11-.11.12-.27,0l-.17-.09C390.59,184,390.5,183.84,390.5,183.72Zm2.1-1.22-.42-2.84c0-.12,0-.35-.07-.7l0,0,0,.23c0,.11,0,.24-.05.39l-.42,2.35Z" style="fill:#e0e0e0"></path><path d="M394.72,186.09v-5.93l-.89-.51a.22.22,0,0,1-.1-.14,1.15,1.15,0,0,1,0-.3V179a.72.72,0,0,1,0-.26c0-.05,0-.06.1,0l2.49,1.44a.25.25,0,0,1,.11.15,1.12,1.12,0,0,1,0,.29v.21a.75.75,0,0,1,0,.26s-.06.05-.11,0l-.88-.51v5.92c0,.17-.1.2-.29.09l-.14-.08A.49.49,0,0,1,394.72,186.09Z" style="fill:#e0e0e0"></path><path d="M396.46,187.16s0-.06,0-.14l1.14-5.91c0-.13.13-.15.3-.05l.27.16a.54.54,0,0,1,.31.4l1.13,7.22a.59.59,0,0,1,0,.17c0,.12-.08.13-.25,0l-.18-.1a.49.49,0,0,1-.27-.33l-.25-1.68-1.3-.75-.24,1.4c0,.1-.1.11-.26,0l-.17-.1C396.55,187.4,396.46,187.29,396.46,187.16Zm2.11-1.22-.42-2.83c0-.12,0-.36-.07-.7l0,0,0,.22a3.77,3.77,0,0,1-.06.39l-.41,2.35Z" style="fill:#e0e0e0"></path><path d="M400.16,189.23v-6.62c0-.17.1-.2.29-.09l.16.09a.5.5,0,0,1,.17.15.67.67,0,0,1,.11.24l1.43,5c.05.21.11.47.18.8h0a6.89,6.89,0,0,1,0-.74V184c0-.17.1-.2.29-.09l.1.06a.49.49,0,0,1,.29.42V191c0,.17-.1.2-.29.09l-.13-.08a.5.5,0,0,1-.27-.35L401,185.44a5,5,0,0,1-.17-.73h0a6.72,6.72,0,0,1,0,.71v4.2c0,.17-.1.2-.29.09l-.1-.06A.49.49,0,0,1,400.16,189.23Z" style="fill:#e0e0e0"></path><path d="M406.5,190.58l-.69-2.45c-.06-.21-.12-.45-.18-.74h0a6,6,0,0,1,0,.69v4.31c0,.17-.1.2-.29.09l-.12-.07a.49.49,0,0,1-.29-.42v-6.62c0-.17.1-.2.29-.09l.16.09a.65.65,0,0,1,.29.38l1,3.51a3.23,3.23,0,0,1,.11.54,2.51,2.51,0,0,1,.11-.42l1-2.36c.05-.12.14-.13.29-.05l.15.09a.47.47,0,0,1,.29.42v6.62c0,.17-.09.2-.29.09l-.11-.07a.47.47,0,0,1-.29-.42v-4.31c0-.2,0-.41,0-.65l0,0c-.06.22-.12.4-.17.54l-.7,1.66c0,.09-.08.12-.17.06l-.19-.11A.39.39,0,0,1,406.5,190.58Z" style="fill:#e0e0e0"></path><path d="M409.14,194.49a.59.59,0,0,1,.06-.18l1.05-2.72-.93-3.56a1.13,1.13,0,0,1-.05-.24c0-.12.1-.12.31,0l.18.11a.72.72,0,0,1,.19.14.28.28,0,0,1,.09.18l.68,2.89.7-2.09c0-.06.05-.09.1-.08a.87.87,0,0,1,.19.08l.15.09c.21.12.31.24.31.36a1,1,0,0,1-.05.18l-1,2.43,1,4a1.65,1.65,0,0,1,.05.23c0,.12-.11.12-.31,0l-.18-.1a.49.49,0,0,1-.28-.33l-.78-3.25-.81,2.34a.09.09,0,0,1-.09.08.64.64,0,0,1-.19-.08l-.16-.09C409.25,194.73,409.14,194.61,409.14,194.49Z" style="fill:#e0e0e0"></path></g></g></svg>